<?xml version="1.0" encoding="utf-8"?>
<!-- Generator: Adobe Illustrator 25.2.0, SVG Export Plug-In . SVG Version: 6.00 Build 0)  -->
<svg version="1.1" id="Layer_1" xmlns="http://www.w3.org/2000/svg" xmlns:xlink="http://www.w3.org/1999/xlink" x="0px" y="0px"
	 viewBox="0 0 92 92" style="enable-background:new 0 0 92 92;" xml:space="preserve">
<g>
	<path d="M29.9,50.6h32.2c2.7,0,4.8-2.2,4.8-4.8c0-2.7-2.2-4.8-4.8-4.8H29.9c-2.7,0-4.8,2.2-4.8,4.8C25.1,48.4,27.3,50.6,29.9,50.6z
		"/>
	<path d="M29.9,78h45.5c2.7,0,4.8-2.2,4.8-4.8c0-2.7-2.1-4.8-4.8-4.8H29.9c-2.7,0-4.8,2.2-4.8,4.8C25.1,75.9,27.3,78,29.9,78z"/>
	<path d="M91.5,18.3c0-2.7-2.2-4.8-4.8-4.8H29.9c-2.7,0-4.8,2.2-4.8,4.8c0,2.7,2.2,4.8,4.8,4.8h56.7C89.3,23.2,91.5,21,91.5,18.3z"
		/>
	<path d="M9.6,41.9C8.8,41,7.4,40.4,6,40.4c-1.4,0-2.8,0.6-3.8,1.6c-1,1-1.7,2.5-1.7,3.8c0,1.4,0.6,2.8,1.6,3.8c1,1,2.4,1.6,3.8,1.6
		s2.8-0.6,3.8-1.6c1-1,1.6-2.4,1.6-3.8C11.2,44.4,10.6,42.9,9.6,41.9L9.6,41.9z"/>
	<path d="M5.9,78.5c1.4,0,2.8-0.6,3.8-1.6c1-1,1.6-2.4,1.6-3.8c0-1.4-0.6-2.8-1.6-3.8l0,0c-0.9-0.9-2.3-1.5-3.7-1.5
		c-1.4,0-2.8,0.6-3.8,1.6c-1,1-1.7,2.5-1.7,3.8c0,1.4,0.6,2.8,1.6,3.8S4.5,78.5,5.9,78.5z"/>
	<path d="M9.6,14.5C8.8,13.5,7.4,13,6,13c-1.4,0-2.8,0.6-3.8,1.6c-1,1-1.7,2.5-1.7,3.8c0,1.4,0.6,2.8,1.6,3.8c1,1,2.4,1.6,3.8,1.6
		s2.8-0.6,3.8-1.6c1-1,1.6-2.4,1.6-3.8C11.2,16.9,10.6,15.5,9.6,14.5L9.6,14.5z"/>
</g>
</svg>
