<?xml version="1.0" encoding="utf-8"?>
<!-- Generator: Adobe Illustrator 25.2.0, SVG Export Plug-In . SVG Version: 6.00 Build 0)  -->
<svg version="1.1" id="Layer_1" xmlns="http://www.w3.org/2000/svg" xmlns:xlink="http://www.w3.org/1999/xlink" x="0px" y="0px"
	 viewBox="0 0 100 100" style="enable-background:new 0 0 100 100;" xml:space="preserve">
<g>
	<path d="M53.3,38.1c0-1.8-1.5-3.3-3.3-3.3s-3.3,1.5-3.3,3.3v8.6h-8.6c-1.8,0-3.3,1.5-3.3,3.3s1.5,3.3,3.3,3.3h8.6v8.6
		c0,1.8,1.5,3.3,3.3,3.3s3.3-1.5,3.3-3.3v-8.6h8.6c1.8,0,3.3-1.5,3.3-3.3s-1.5-3.3-3.3-3.3h-8.6V38.1z"/>
	<path d="M81.9,37.4c-0.1-0.6-0.4-1.4-1-2.1L61,15.4c-0.6-0.6-1.5-0.9-2.4-0.9H21.5c-1.8,0-3.3,1.5-3.3,3.3v53.1
		c0,8.1,6.6,14.7,14.7,14.7h34.3c8.1,0,14.7-6.6,14.7-14.7V37.7L81.9,37.4z M75.2,70.9c0,4.3-3.7,8-8,8H32.8c-4.3,0-8-3.7-8-8V21.1
		h32.4L75.1,39L75.2,70.9z"/>
</g>
</svg>
