<?xml version="1.0" encoding="utf-8"?>
<!-- Generator: Adobe Illustrator 25.2.0, SVG Export Plug-In . SVG Version: 6.00 Build 0)  -->
<svg version="1.1" id="Layer_1" xmlns="http://www.w3.org/2000/svg" xmlns:xlink="http://www.w3.org/1999/xlink" x="0px" y="0px"
	 viewBox="0 0 1024 1024" style="enable-background:new 0 0 1024 1024;" xml:space="preserve">
<g>
	<path d="M892.6,876.4c0-2.3,0-4.6,0-6.9c0-4.6,0-9.2,0-13.8c0.1-29.3,0.3-59.7-5-89.7c-8.6-49.2-33.3-97.8-69.7-136.8
		c-35.2-37.7-82.3-65.3-132.5-77.7c-29.2-7.2-58.7-8.2-86.4-8.2h-175c-28.1,0-58.2,1.1-88.6,9.2c-50.1,13.3-96.5,41.4-130.8,79.1
		c-36.1,39.7-60.2,88.7-68.1,137.8c-4.6,29.3-4.5,58.9-4.4,87.6c0,4.9,0,9.8,0,14.7c0,1.8,0,3.7,0,5.6c-0.1,14.4-0.2,29.2,5.2,43.5
		c7.9,20.8,20.5,36.7,38.5,48.7c13.6,9,31.2,14.1,49.4,14.3c2.6,0,5.2,0,7.8,0c2.6,0,5.1,0,7.7,0c2.6,0,5.1,0,7.7,0h550.8
		c1.7,0,3.4-0.1,5.2-0.3c39-2.7,72.8-29.5,84.2-66.8C892.9,903.3,892.8,889.6,892.6,876.4z M800.8,883.4c0,2.3,0,4.6,0,6.9
		c0,0.1,0,0.2-0.1,0.3c-0.1,0.2-0.2,0.4-0.3,0.6c-0.1,0.1-0.2,0.2-0.2,0.2c-0.2,0.1-0.4,0.3-0.6,0.4c-0.2,0-0.4,0.1-0.5,0.1H293.2
		c-7.5,0-14.9,0-22.4,0c-14.7,0-29.8,0.1-44.8,0c-0.1,0-0.3,0-0.4,0c-0.1,0-0.2-0.1-0.3-0.1c-0.2-0.1-0.4-0.2-0.6-0.3
		c-0.1-0.1-0.2-0.2-0.2-0.2c-0.1-0.2-0.3-0.4-0.4-0.7c-0.1-0.4-0.2-0.8-0.3-1.3c-0.3-5.9-0.1-12.1,0-18.1c0.1-3.6,0.2-7.2,0.2-10.7
		v-42.2c0-8.8,0.4-17,1.3-25.1c2.5-15.7,6.6-31.1,12.2-45.6c6.7-15,15-29.3,24.7-42.4c9.6-11.8,20.3-22.5,31.9-31.9
		c13.1-9.7,27.3-18,42.2-24.7c14.8-5.7,30.1-9.8,45.6-12.3c12.3-1.2,24.4-1.3,37.9-1.3H602c14.2,0,27.6,0,41.3,1.4
		c15.5,2.5,30.6,6.6,44.9,12.1c15,6.7,29.3,15,42.4,24.7c11.8,9.6,22.5,20.3,31.9,31.9c9.7,13.1,18,27.3,24.7,42.2
		c5.7,14.7,9.8,29.9,12.3,45.4c1.3,12.7,1.4,25.2,1.4,39v48.8L800.8,883.4z"/>
	<path d="M409.3,499.6L409.3,499.6c10.3,4.7,24,10.5,38.7,14.6c14.2,3.9,28.3,5.9,40.3,7.3c7.7,0.9,15.6,1.4,23.8,1.4
		c16.3,0,33.4-1.8,51.2-5.4c93.7-19.1,172.2-100.8,186.5-194.3c2.3-14.6,3.4-26,3.7-36.7c0.2-1.7,0.3-3.4,0.3-5
		c-0.2-50.4-15.6-99.4-43.4-137.8c-9-12.5-17-22.1-25-30.4c-9.8-10.1-20.6-18.7-29.8-25.7c-17.9-13.6-38.6-24.6-63.2-33.7
		c-91.3-33.5-202.3-3.3-264,71.8c-10,12.1-17.4,22.4-23.4,32.5c-7.4,12.3-12.9,25.1-17.2,35.9c-8.7,21.3-13.9,44.8-16,71.9
		c-3.7,47.4,8.7,98.5,34,140.1C330.8,447.5,367.6,480.8,409.3,499.6z M570.1,143.2c12.2,5.5,23.7,12.3,34.4,20.1
		c9.4,7.8,18.1,16.4,25.9,25.8c8,10.9,14.9,22.6,20.4,34.8c4.6,12.2,8.1,24.8,10.2,37.6c0.6,6.4,1,13.1,1.1,19.9
		c0,6.3-0.3,12.9-1,19.7c-2.1,12.9-5.6,25.7-10.3,38c-5.5,12.2-12.3,23.7-20.1,34.4c-7.8,9.4-16.5,18.1-25.8,25.9
		c-10.9,8-22.6,14.9-34.8,20.4c-12.4,4.7-25.3,8.2-38.4,10.3c-12.7,1.3-25.7,1.3-38.4,0c-13.1-2.1-26-5.6-38.4-10.3
		c-12.2-5.5-23.7-12.3-34.4-20.1c-9.4-7.8-18.1-16.4-25.9-25.8c-8-10.9-14.9-22.6-20.4-34.8c-4.7-12.4-8.2-25.3-10.3-38.4
		c-1.3-12.7-1.3-25.7,0-38.4c2.1-13.1,5.6-26,10.3-38.4c5.5-12.2,12.3-23.7,20.1-34.4c7.8-9.4,16.5-18.1,25.8-25.9
		c10.9-8,22.6-14.9,34.8-20.4c12.4-4.7,25.3-8.2,38.4-10.3c12.7-1.3,25.7-1.3,38.4,0C544.8,135,557.7,138.5,570.1,143.2z"/>
</g>
</svg>
